<svg version="1.2" xmlns="http://www.w3.org/2000/svg" viewBox="0 0 40 40" width="40" height="40">
	<title>icons8-checkmark-30-svg</title>
	<style>
		.s0 { fill: #ffdc4b } 
		.s1 { fill: #ff9700 } 
		.s2 { fill: #ffbd00 } 
	</style>
	<path id="Layer" class="s0" d="m20 38.5c-10.2 0-18.5-8.3-18.5-18.5 0-10.2 8.3-18.5 18.5-18.5 10.2 0 18.5 8.3 18.5 18.5 0 10.2-8.3 18.5-18.5 18.5z"/>
	<path id="Layer" fill-rule="evenodd" class="s1" d="m39 20c0 10.5-8.5 19-19 19-10.5 0-19-8.5-19-19 0-10.5 8.5-19 19-19 10.5 0 19 8.5 19 19zm-37 0c0 9.9 8.1 18 18 18 9.9 0 18-8.1 18-18 0-9.9-8.1-18-18-18-9.9 0-18 8.1-18 18z"/>
	<path id="Layer 1" class="s2" d="m20 29c-5 0-9-4-9-9 0-5 4-9 9-9 5 0 9 4 9 9 0 5-4 9-9 9z"/>
</svg>